<svg width="18" height="18" viewBox="0 0 18 18" fill="none" xmlns="http://www.w3.org/2000/svg">
<path d="M6.75 9.75C6.255 9.9975 5.8425 10.365 5.535 10.8225C5.3625 11.085 5.3625 11.415 5.535 11.6775C5.8425 12.135 6.255 12.5025 6.75 12.75" stroke="linear-gradient(to right, #7000C0 10%, #9D00FF, #FF00AA)" style="stroke:linear-gradient(to right, #7000C0 10%, #9D00FF, #FF00AA);stroke-opacity:1;" stroke-linecap="round" stroke-linejoin="round"/>
<path d="M11.4075 9.75C11.9025 9.9975 12.315 10.365 12.6225 10.8225C12.795 11.085 12.795 11.415 12.6225 11.6775C12.315 12.135 11.9025 12.5025 11.4075 12.75" stroke="linear-gradient(to right, #7000C0 10%, #9D00FF, #FF00AA)" style="stroke:linear-gradient(to right, #7000C0 10%, #9D00FF, #FF00AA);stroke-opacity:1;" stroke-linecap="round" stroke-linejoin="round"/>
<path d="M6.75 16.5H11.25C15 16.5 16.5 15 16.5 11.25V6.75C16.5 3 15 1.5 11.25 1.5H6.75C3 1.5 1.5 3 1.5 6.75V11.25C1.5 15 3 16.5 6.75 16.5Z" stroke="linear-gradient(to right, #7000C0 10%, #9D00FF, #FF00AA)" style="stroke:linear-gradient(to right, #7000C0 10%, #9D00FF, #FF00AA);stroke-opacity:1;" stroke-linecap="round" stroke-linejoin="round"/>
<path d="M1.6725 6.0075L16.0875 6" stroke="linear-gradient(to right, #7000C0 10%, #9D00FF, #FF00AA)" style="stroke:linear-gradient(to right, #7000C0 10%, #9D00FF, #FF00AA);stroke-opacity:1;" stroke-linecap="round" stroke-linejoin="round"/>
</svg>
