<svg width="50" height="50" viewBox="0 0 50 50" fill="none" xmlns="http://www.w3.org/2000/svg">
<path d="M18.75 27.0833C17.375 27.7708 16.2292 28.7916 15.375 30.0625C14.8958 30.7916 14.8958 31.7083 15.375 32.4375C16.2292 33.7083 17.375 34.7291 18.75 35.4166" stroke="url(#paint0_linear_3_473)" style="" stroke-width="1.5" stroke-linecap="round" stroke-linejoin="round"/>
<path d="M31.6875 27.0833C33.0625 27.7708 34.2083 28.7916 35.0625 30.0625C35.5417 30.7916 35.5417 31.7083 35.0625 32.4375C34.2083 33.7083 33.0625 34.7291 31.6875 35.4166" stroke="url(#paint1_linear_3_473)" style="" stroke-width="1.5" stroke-linecap="round" stroke-linejoin="round"/>
<path d="M18.75 45.8334H31.25C41.6667 45.8334 45.8333 41.6667 45.8333 31.25V18.75C45.8333 8.33335 41.6667 4.16669 31.25 4.16669H18.75C8.33332 4.16669 4.16666 8.33335 4.16666 18.75V31.25C4.16666 41.6667 8.33332 45.8334 18.75 45.8334Z" stroke="url(#paint2_linear_3_473)" style="" stroke-width="1.5" stroke-linecap="round" stroke-linejoin="round"/>
<path d="M4.64584 16.6875L44.6875 16.6667" stroke="url(#paint3_linear_3_473)" style="" stroke-width="1.5" stroke-linecap="round" stroke-linejoin="round"/>
<defs>
<linearGradient id="paint0_linear_3_473" x1="15.0156" y1="31.25" x2="18.75" y2="31.25" gradientUnits="userSpaceOnUse">
<stop stop-color="#9D00FF" style="stop-color:#9D00FF;stop-color:color(display-p3 0.6167 0.0000 1.0000);stop-opacity:1;"/>
<stop offset="1" stop-color="#FF00AA" style="stop-color:#FF00AA;stop-color:color(display-p3 1.0000 0.0015 0.6672);stop-opacity:1;"/>
</linearGradient>
<linearGradient id="paint1_linear_3_473" x1="31.6875" y1="31.25" x2="35.4219" y2="31.25" gradientUnits="userSpaceOnUse">
<stop stop-color="#9D00FF" style="stop-color:#9D00FF;stop-color:color(display-p3 0.6167 0.0000 1.0000);stop-opacity:1;"/>
<stop offset="1" stop-color="#FF00AA" style="stop-color:#FF00AA;stop-color:color(display-p3 1.0000 0.0015 0.6672);stop-opacity:1;"/>
</linearGradient>
<linearGradient id="paint2_linear_3_473" x1="4.16666" y1="25" x2="45.8333" y2="25" gradientUnits="userSpaceOnUse">
<stop stop-color="#9D00FF" style="stop-color:#9D00FF;stop-color:color(display-p3 0.6167 0.0000 1.0000);stop-opacity:1;"/>
<stop offset="1" stop-color="#FF00AA" style="stop-color:#FF00AA;stop-color:color(display-p3 1.0000 0.0015 0.6672);stop-opacity:1;"/>
</linearGradient>
<linearGradient id="paint3_linear_3_473" x1="4.64584" y1="16.6771" x2="44.6875" y2="16.6771" gradientUnits="userSpaceOnUse">
<stop stop-color="#9D00FF" style="stop-color:#9D00FF;stop-color:color(display-p3 0.6167 0.0000 1.0000);stop-opacity:1;"/>
<stop offset="1" stop-color="#FF00AA" style="stop-color:#FF00AA;stop-color:color(display-p3 1.0000 0.0015 0.6672);stop-opacity:1;"/>
</linearGradient>
</defs>
</svg>
