<svg width="18" height="18" viewBox="0 0 18 18" fill="none" xmlns="http://www.w3.org/2000/svg">
<path d="M9.1125 12.375V13.95" stroke="white" style="stroke:white;stroke-opacity:1;" stroke-linecap="round" stroke-linejoin="round"/>
<path d="M5.3625 16.5H12.8625V15.75C12.8625 14.925 12.1875 14.25 11.3625 14.25H6.8625C6.0375 14.25 5.3625 14.925 5.3625 15.75V16.5V16.5Z" stroke="white" style="stroke:white;stroke-opacity:1;" stroke-miterlimit="10"/>
<path d="M4.6125 16.5H13.6125" stroke="white" style="stroke:white;stroke-opacity:1;" stroke-linecap="round" stroke-linejoin="round"/>
<path d="M9 12C6.0975 12 3.75 9.6525 3.75 6.75V4.5C3.75 2.8425 5.0925 1.5 6.75 1.5H11.25C12.9075 1.5 14.25 2.8425 14.25 4.5V6.75C14.25 9.6525 11.9025 12 9 12Z" stroke="white" style="stroke:white;stroke-opacity:1;" stroke-linecap="round" stroke-linejoin="round"/>
<path d="M4.1025 8.73751C3.54 8.55751 3.045 8.22751 2.655 7.83751C1.98 7.08751 1.53 6.18751 1.53 5.13751C1.53 4.08751 2.355 3.26251 3.405 3.26251H3.8925C3.7425 3.60751 3.6675 3.99001 3.6675 4.38751V6.63751C3.6675 7.38751 3.825 8.09251 4.1025 8.73751Z" stroke="white" style="stroke:white;stroke-opacity:1;" stroke-linecap="round" stroke-linejoin="round"/>
<path d="M13.8975 8.73751C14.46 8.55751 14.955 8.22751 15.345 7.83751C16.02 7.08751 16.47 6.18751 16.47 5.13751C16.47 4.08751 15.645 3.26251 14.595 3.26251H14.1075C14.2575 3.60751 14.3325 3.99001 14.3325 4.38751V6.63751C14.3325 7.38751 14.175 8.09251 13.8975 8.73751Z" stroke="white" style="stroke:white;stroke-opacity:1;" stroke-linecap="round" stroke-linejoin="round"/>
</svg>
