<svg width="14" height="14" viewBox="0 0 14 14" fill="none" xmlns="http://www.w3.org/2000/svg">
<path d="M13 12.8332L11.8334 11.6665M6.87504 12.2498C7.60278 12.2498 8.3234 12.1065 8.99575 11.828C9.66809 11.5495 10.279 11.1413 10.7936 10.6267C11.3082 10.1121 11.7164 9.50122 11.9949 8.82887C12.2734 8.15653 12.4167 7.43591 12.4167 6.70817C12.4167 5.98043 12.2734 5.25981 11.9949 4.58747C11.7164 3.91512 11.3082 3.30421 10.7936 2.78962C10.279 2.27503 9.66809 1.86683 8.99575 1.58834C8.3234 1.30984 7.60278 1.1665 6.87504 1.1665C5.4053 1.1665 3.99575 1.75036 2.95649 2.78962C1.91723 3.82888 1.33337 5.23843 1.33337 6.70817C1.33337 8.17791 1.91723 9.58746 2.95649 10.6267C3.99575 11.666 5.4053 12.2498 6.87504 12.2498Z" stroke="white" style="stroke:white;stroke-opacity:1;" stroke-linecap="round" stroke-linejoin="round"/>
</svg>
