<svg width="18" height="18" viewBox="0 0 18 18" fill="none" xmlns="http://www.w3.org/2000/svg">
<path d="M14.25 6.75C14.25 7.8375 13.9275 8.83501 13.3725 9.66751C12.5625 10.8675 11.28 11.715 9.7875 11.9325C9.5325 11.9775 9.27 12 9 12C8.73 12 8.4675 11.9775 8.2125 11.9325C6.72 11.715 5.4375 10.8675 4.6275 9.66751C4.0725 8.83501 3.75 7.8375 3.75 6.75C3.75 3.8475 6.0975 1.5 9 1.5C11.9025 1.5 14.25 3.8475 14.25 6.75Z" stroke="url(#paint0_linear_386_52)" style="" stroke-linecap="round" stroke-linejoin="round"/>
<path d="M15.9375 13.8525L14.7 14.145C14.4225 14.2125 14.205 14.4225 14.145 14.7L13.8825 15.8025C13.74 16.4025 12.975 16.5825 12.5775 16.11L9 12L5.4225 16.1175C5.025 16.59 4.26 16.41 4.1175 15.81L3.855 14.7075C3.7875 14.43 3.57 14.2125 3.3 14.1525L2.0625 13.86C1.4925 13.725 1.29 13.0125 1.7025 12.6L4.6275 9.67499C5.4375 10.875 6.72 11.7225 8.2125 11.94C8.4675 11.985 8.73 12.0075 9 12.0075C9.27 12.0075 9.5325 11.985 9.7875 11.94C11.28 11.7225 12.5625 10.875 13.3725 9.67499L16.2975 12.6C16.71 13.005 16.5075 13.7175 15.9375 13.8525Z" stroke="url(#paint1_linear_386_52)" style="" stroke-linecap="round" stroke-linejoin="round"/>
<path d="M9.435 4.485L9.8775 5.36999C9.9375 5.48999 10.095 5.61 10.2375 5.6325L11.04 5.76749C11.55 5.84999 11.67 6.225 11.3025 6.5925L10.68 7.21499C10.575 7.31999 10.515 7.5225 10.5525 7.6725L10.7325 8.445C10.875 9.0525 10.5525 9.29249 10.0125 8.96999L9.2625 8.52749C9.1275 8.44499 8.90249 8.44499 8.76749 8.52749L8.01749 8.96999C7.47749 9.28499 7.15499 9.0525 7.29749 8.445L7.4775 7.6725C7.5075 7.53 7.455 7.31999 7.35 7.21499L6.7275 6.5925C6.36 6.225 6.47999 5.85749 6.98999 5.76749L7.7925 5.6325C7.9275 5.61 8.08499 5.48999 8.14499 5.36999L8.58749 4.485C8.80499 4.005 9.195 4.005 9.435 4.485Z" stroke="url(#paint2_linear_386_52)" style="" stroke-linecap="round" stroke-linejoin="round"/>
<defs>
<linearGradient id="paint0_linear_386_52" x1="3.75" y1="6.75" x2="14.25" y2="6.75" gradientUnits="userSpaceOnUse">
<stop stop-color="#9D00FF" style="stop-color:#9D00FF;stop-color:color(display-p3 0.6167 0.0000 1.0000);stop-opacity:1;"/>
<stop offset="1" stop-color="#FF00AA" style="stop-color:#FF00AA;stop-color:color(display-p3 1.0000 0.0015 0.6672);stop-opacity:1;"/>
</linearGradient>
<linearGradient id="paint1_linear_386_52" x1="1.48456" y1="13.0307" x2="16.5154" y2="13.0307" gradientUnits="userSpaceOnUse">
<stop stop-color="#9D00FF" style="stop-color:#9D00FF;stop-color:color(display-p3 0.6167 0.0000 1.0000);stop-opacity:1;"/>
<stop offset="1" stop-color="#FF00AA" style="stop-color:#FF00AA;stop-color:color(display-p3 1.0000 0.0015 0.6672);stop-opacity:1;"/>
</linearGradient>
<linearGradient id="paint2_linear_386_52" x1="6.51418" y1="6.61932" x2="11.5158" y2="6.61932" gradientUnits="userSpaceOnUse">
<stop stop-color="#9D00FF" style="stop-color:#9D00FF;stop-color:color(display-p3 0.6167 0.0000 1.0000);stop-opacity:1;"/>
<stop offset="1" stop-color="#FF00AA" style="stop-color:#FF00AA;stop-color:color(display-p3 1.0000 0.0015 0.6672);stop-opacity:1;"/>
</linearGradient>
</defs>
</svg>
